<svg width="20" height="20" viewBox="0 0 20 20" fill="none" xmlns="http://www.w3.org/2000/svg">
<ellipse cx="10" cy="10.5" rx="9" ry="9.5" fill="white"/>
<g clip-path="url(#clip0)">
<path d="M10 0.416626C4.475 0.416626 0 4.81663 0 10.2433C0 14.5858 2.865 18.2683 6.8375 19.5666C7.3375 19.6591 7.52083 19.355 7.52083 19.0941C7.52083 18.8608 7.5125 18.2425 7.50833 17.4233C4.72667 18.0158 4.14 16.105 4.14 16.105C3.685 14.9708 3.0275 14.6675 3.0275 14.6675C2.12167 14.0583 3.0975 14.0708 3.0975 14.0708C4.10167 14.1391 4.62917 15.0833 4.62917 15.0833C5.52083 16.5858 6.97 16.1516 7.54167 15.9008C7.63167 15.265 7.88917 14.8325 8.175 14.5866C5.95417 14.3408 3.62 13.4958 3.62 9.73079C3.62 8.65829 4.0075 7.78163 4.64917 7.09413C4.53667 6.84579 4.19917 5.84663 4.73667 4.49329C4.73667 4.49329 5.57417 4.22996 7.48667 5.50079C8.28667 5.28246 9.13667 5.17413 9.98667 5.16913C10.8367 5.17413 11.6867 5.28246 12.4867 5.50079C14.3867 4.22996 15.2242 4.49329 15.2242 4.49329C15.7617 5.84663 15.4242 6.84579 15.3242 7.09413C15.9617 7.78163 16.3492 8.65829 16.3492 9.73079C16.3492 13.5058 14.0117 14.3366 11.7867 14.5783C12.1367 14.8733 12.4617 15.4758 12.4617 16.3966C12.4617 17.7116 12.4492 18.7683 12.4492 19.0875C12.4492 19.345 12.6242 19.6525 13.1367 19.5541C17.1375 18.2641 20 14.5791 20 10.2433C20 4.81663 15.5225 0.416626 10 0.416626Z" fill="#212121"/>
</g>
<defs>
<clipPath id="clip0">
<rect width="20" height="20" fill="white"/>
</clipPath>
</defs>
</svg>
