<svg width="20" height="20" viewBox="0 0 20 20" fill="none" xmlns="http://www.w3.org/2000/svg">
<mask id="mask0" mask-type="alpha" maskUnits="userSpaceOnUse" x="0" y="0" width="20" height="20">
<circle cx="10" cy="10" r="10" fill="white"/>
</mask>
<g mask="url(#mask0)">
<path d="M1.25 18.6391C-0.321663 17.0066 3.28943e-06 15.2725 3.28943e-06 10.0041C3.28943e-06 5.62914 -0.76333 1.24331 3.23167 0.210806C4.47917 -0.110027 15.5325 -0.110027 16.7783 0.212471C18.4417 0.641638 19.795 1.99081 19.98 4.34331C20.0058 4.67164 20.0058 15.3308 19.9792 15.6658C19.7825 18.1716 18.24 19.6158 16.2075 19.9083C15.7417 19.9758 15.6483 19.9958 13.2583 20C4.78084 19.9958 2.9225 20.3733 1.25 18.6391Z" fill="url(#paint0_linear)"/>
<path d="M9.99834 17.3842C6.97251 17.3842 4.09917 17.6533 3.00167 14.8367C2.54834 13.6733 2.61417 12.1625 2.61417 9.99917C2.61417 8.10084 2.55334 6.31667 3.00167 5.1625C4.09667 2.34417 6.99334 2.61417 9.99667 2.61417C12.8942 2.61417 15.8817 2.3125 16.9925 5.1625C17.4467 6.3375 17.38 7.82584 17.38 9.99917C17.38 12.8842 17.5392 14.7467 16.14 16.145C14.7233 17.5617 12.8075 17.3842 9.99501 17.3842H9.99834ZM9.33667 16.0533C15.6483 16.0633 16.4517 16.765 16.0083 7.0175C15.8508 3.57 13.2258 3.94834 9.99917 3.94834C4.11584 3.94834 3.94667 4.11667 3.94667 10.0025C3.94667 15.9567 4.41334 16.05 9.33667 16.055V16.0533ZM13.94 14.8275C13.4508 14.8275 13.0542 14.4308 13.0542 13.9417C13.0542 13.4525 13.4508 13.0558 13.94 13.0558C14.4292 13.0558 14.8258 13.4525 14.8258 13.9417C14.8258 14.4308 14.4292 14.8275 13.94 14.8275ZM9.99834 13.7917C7.90417 13.7917 6.20667 12.0933 6.20667 9.99917C6.20667 7.905 7.90417 6.2075 9.99834 6.2075C12.0925 6.2075 13.7892 7.905 13.7892 9.99917C13.7892 12.0933 12.0925 13.7917 9.99834 13.7917ZM9.99834 12.4608C13.2525 12.4608 13.2567 7.5375 9.99834 7.5375C6.74501 7.5375 6.74001 12.4608 9.99834 12.4608Z" fill="white"/>
</g>
<defs>
<linearGradient id="paint0_linear" x1="1.28835" y1="1.2774" x2="19.8762" y2="17.365" gradientUnits="userSpaceOnUse">
<stop stop-color="#FFDD55"/>
<stop offset="0.5" stop-color="#FF543E"/>
<stop offset="1" stop-color="#C837AB"/>
</linearGradient>
</defs>
</svg>
